<svg viewBox="0 0 65 65" fill="none" xmlns="http://www.w3.org/2000/svg" class="value-prop_icon__IdXxl list-property_lightPinkIcon__Xyq3P" width="64" height="64" aria-hidden="true"><path fill-rule="evenodd" clip-rule="evenodd" d="M14.5 21.27a4.5 4.5 0 0 1 4.5-4.5h27a4.5 4.5 0 0 1 4.5 4.5v17.25a4.5 4.5 0 0 1-4.5 4.5H19a4.5 4.5 0 0 1-4.5-4.5V21.27Zm4.5-1.125h27c.621 0 1.125.504 1.125 1.125v17.25c0 .621-.504 1.125-1.125 1.125H19a1.125 1.125 0 0 1-1.125-1.125V21.27c0-.621.504-1.125 1.125-1.125Z" fill="currentColor"></path><path d="M14.5 47.52h36v-3.375h-36v3.375Zm18.656-10.43a.192.192 0 0 0 .142-.058.193.193 0 0 0 .058-.14l-.016-.984c0-.044.028-.078.083-.1.965-.122 1.719-.465 2.262-1.03.543-.566.815-1.287.815-2.163 0-.654-.16-1.2-.482-1.638a3.498 3.498 0 0 0-1.156-1.023c-.45-.244-1.05-.516-1.805-.815-.698-.266-1.217-.485-1.555-.657-.338-.172-.593-.363-.765-.574-.172-.21-.258-.482-.258-.815 0-.466.161-.826.483-1.081.321-.255.776-.383 1.363-.383.71 0 1.267.18 1.672.541.405.36.607.801.607 1.322v.183c0 .056.02.103.058.142a.192.192 0 0 0 .142.058h1.413c.056 0 .103-.02.142-.058a.192.192 0 0 0 .058-.142v-.283c0-.875-.275-1.613-.823-2.212-.55-.598-1.295-.975-2.238-1.13-.055-.023-.083-.056-.083-.1l.034-1.167a.193.193 0 0 0-.059-.141.192.192 0 0 0-.14-.059H31.81a.192.192 0 0 0-.142.059.193.193 0 0 0-.058.141l.034 1.15c0 .044-.028.078-.084.1-.887.133-1.588.471-2.104 1.014-.515.544-.773 1.237-.773 2.08 0 .654.155 1.2.466 1.638.31.438.698.784 1.164 1.04.466.254 1.07.526 1.813.814.665.277 1.167.502 1.505.674.338.172.596.366.773.582.178.216.266.48.266.79 0 .454-.163.826-.49 1.114-.327.288-.818.433-1.472.433-.743 0-1.33-.17-1.763-.508-.433-.338-.649-.762-.649-1.272v-.316a.192.192 0 0 0-.058-.141.192.192 0 0 0-.141-.059H28.7a.192.192 0 0 0-.142.059.192.192 0 0 0-.058.141v.416c0 .876.274 1.6.823 2.17.55.571 1.306.934 2.27 1.09.056.022.084.055.084.1l-.018 1c0 .054.02.102.058.14a.192.192 0 0 0 .142.059h1.297Z" fill="currentColor"></path></svg>