<svg viewBox="0 0 64 65" fill="none" xmlns="http://www.w3.org/2000/svg" class="value-prop_icon__IdXxl list-property_lightBlueIcon__EZllg" width="64" height="64" aria-hidden="true"><path d="M48.313 32.77c0 .086-.039.363-.241.858-.192.47-.492 1.042-.906 1.684-.826 1.285-2.048 2.763-3.576 4.159-3.084 2.818-7.196 5.112-11.59 5.112s-8.506-2.294-11.59-5.112c-1.528-1.396-2.75-2.874-3.576-4.159a10.649 10.649 0 0 1-.906-1.684c-.202-.495-.24-.772-.24-.858 0-.086.038-.363.24-.858.192-.47.492-1.041.905-1.684.828-1.285 2.05-2.763 3.577-4.159 3.084-2.817 7.196-5.111 11.59-5.111s8.506 2.294 11.59 5.111c1.528 1.396 2.75 2.874 3.576 4.159.414.642.714 1.214.906 1.684.202.495.24.772.24.858Z" stroke="currentColor" stroke-width="3.375"></path><circle cx="32" cy="32.77" r="5.063" stroke="currentColor" stroke-width="3.375"></circle></svg>