<svg viewBox="0 0 65 65" fill="currentColor" xmlns="http://www.w3.org/2000/svg" class="value-prop_icon__IdXxl list-property_lightLavenderIcon__KWk3B" width="64" height="64" aria-hidden="true"><path d="M47.976 21.818v19.81a3.048 3.048 0 0 1-3.047 3.047h-1.444l2.034 6.095H30.624l2.032-6.095H20.548a3.048 3.048 0 0 1-3.048-3.048v-19.81a3.048 3.048 0 0 1 3.048-3.047h24.38a3.048 3.048 0 0 1 3.048 3.048Zm-8.718 19.81h-2.375l-2.031 6.094h6.438l-2.032-6.095Zm5.67-19.81h-24.38v19.81H33.67l.548-1.646a5.314 5.314 0 0 1-1.473-3.395l-.008-.293a5.333 5.333 0 1 1 9.186 3.688l.547 1.645h2.458v-19.81Zm-6.857 12.19a2.286 2.286 0 1 0 0 4.572 2.286 2.286 0 0 0 0-4.572Zm-8.38-3.048v3.048h-6.096V30.96h6.096Zm12.19-6.095v3.048H23.595v-3.048h18.286Z"></path></svg>